G04 ================== begin FILE IDENTIFICATION RECORD ==================*
G04 Layout Name:  F:/Cadence/SPB_Data/draft1/worklib/draft1/physical/temperature3.brd*
G04 Film Name:    SOLDERMASK_TOP*
G04 File Format:  Gerber RS274X*
G04 File Origin:  Cadence Allegro 17.2-P019*
G04 Origin Date:  Tue Jul 05 10:23:57 2022*
G04 *
G04 Layer:  PIN/SOLDERMASK_TOP*
G04 Layer:  PACKAGE GEOMETRY/SOLDERMASK_TOP*
G04 Layer:  BOARD GEOMETRY/OUTLINE*
G04 Layer:  BOARD GEOMETRY/SOLDERMASK_TOP*
G04 *
G04 Offset:    (0.00 0.00)*
G04 Mirror:    No*
G04 Mode:      Positive*
G04 Rotation:  0*
G04 FullContactRelief:  No*
G04 UndefLineWidth:     10.00*
G04 ================== end FILE IDENTIFICATION RECORD ====================*
%FSLAX25Y25*MOIN*%
%IR0*IPPOS*OFA0.00000B0.00000*MIA0B0*SFA1.00000B1.00000*%
%ADD12C,.045*%
%ADD10C,.09*%
%ADD11C,.065*%
%ADD13C,.01*%
G75*
%LPD*%
G75*
G54D10*
X371250Y245350D03*
Y255550D03*
Y265750D03*
Y275950D03*
Y286150D03*
Y296350D03*
Y306550D03*
X380800Y445000D03*
Y455200D03*
Y465400D03*
Y475600D03*
Y485800D03*
Y496000D03*
Y506200D03*
Y516400D03*
Y526600D03*
Y536800D03*
Y547000D03*
Y557200D03*
Y567400D03*
Y577600D03*
Y587800D03*
Y598000D03*
X385050Y350050D03*
X384350Y371250D03*
X405050Y350050D03*
X404350Y371250D03*
X406050Y405350D03*
Y415550D03*
Y425750D03*
Y435950D03*
Y446150D03*
Y456350D03*
X421550Y248950D03*
X433450Y566250D03*
Y576250D03*
Y586250D03*
X434600Y276000D03*
Y286200D03*
Y296400D03*
Y306600D03*
X439100Y415100D03*
Y425300D03*
Y435500D03*
Y445700D03*
X441550Y248950D03*
X457950Y597550D03*
X478550Y350550D03*
Y370050D03*
X496250Y270050D03*
Y310050D03*
X497300Y346900D03*
Y356900D03*
Y366900D03*
Y376900D03*
Y386900D03*
Y396900D03*
Y406900D03*
Y416900D03*
Y426900D03*
Y436900D03*
Y446900D03*
Y456900D03*
Y466900D03*
Y476900D03*
Y486900D03*
Y496900D03*
Y506900D03*
Y516900D03*
Y526900D03*
Y536900D03*
X497950Y597550D03*
X525350Y578850D03*
Y598850D03*
X557250Y267650D03*
Y287650D03*
X557300Y346900D03*
Y356900D03*
Y366900D03*
Y376900D03*
Y386900D03*
Y396900D03*
Y406900D03*
Y416900D03*
Y426900D03*
Y436900D03*
Y446900D03*
Y456900D03*
Y466900D03*
Y476900D03*
Y486900D03*
Y496900D03*
Y506900D03*
Y516900D03*
Y526900D03*
Y536900D03*
X557850Y579650D03*
Y597650D03*
X578950Y446750D03*
X577950Y469150D03*
Y509150D03*
Y529550D03*
Y549550D03*
X585450Y309050D03*
Y327050D03*
X583850Y579650D03*
Y597650D03*
X598350Y530050D03*
Y550050D03*
X611450Y309050D03*
Y327050D03*
X618950Y446750D03*
Y530150D03*
Y550150D03*
X640750Y540150D03*
Y550150D03*
Y560150D03*
X645650Y379650D03*
Y405650D03*
X646450Y425150D03*
Y451150D03*
X646850Y468650D03*
Y494650D03*
X663650Y379650D03*
Y405650D03*
X664450Y425150D03*
Y451150D03*
X664850Y468650D03*
Y494650D03*
X663750Y529150D03*
Y549150D03*
X665350Y246950D03*
Y286950D03*
X684550Y385650D03*
Y425650D03*
X685050Y345850D03*
Y365850D03*
X685450Y528750D03*
Y548750D03*
X704650Y387650D03*
Y427650D03*
X706450Y528650D03*
Y548650D03*
X726150Y463850D03*
Y493850D03*
X725850Y528150D03*
Y548150D03*
X725650Y570050D03*
Y590050D03*
G54D11*
X632400Y588200D03*
Y608200D03*
X640400Y588200D03*
Y608200D03*
X648400Y588200D03*
Y608200D03*
G54D12*
X702700Y450000D03*
X697600D03*
X707800D03*
G54D13*
G01X353250Y228250D02*
Y621750D01*
X746750D01*
Y228250D01*
X353250D01*
M02*
