G04 ================== begin FILE IDENTIFICATION RECORD ==================*
G04 Layout Name:  F:/Cadence/SPB_Data/draft1/worklib/draft1/physical/temperature3.brd*
G04 Film Name:    DRILL*
G04 File Format:  Gerber RS274X*
G04 File Origin:  Cadence Allegro 17.2-P019*
G04 Origin Date:  Tue Jul 05 10:23:57 2022*
G04 *
G04 Layer:  MANUFACTURING/NCDRILL_LEGEND*
G04 Layer:  MANUFACTURING/NCDRILL_FIGURE*
G04 Layer:  BOARD GEOMETRY/OUTLINE*
G04 Layer:  MANUFACTURING/NCLEGEND-1-2*
G04 *
G04 Offset:    (0.00 0.00)*
G04 Mirror:    No*
G04 Mode:      Positive*
G04 Rotation:  0*
G04 FullContactRelief:  No*
G04 UndefLineWidth:     10.00*
G04 ================== end FILE IDENTIFICATION RECORD ====================*
%FSLAX25Y25*MOIN*%
%IR0*IPPOS*OFA0.00000B0.00000*MIA0B0*SFA1.00000B1.00000*%
%AMMACRO12*
1,1,.01,.0125,0.0*
20,1,.01,.0125,0.0,-.0125,0.0,0.0*
1,1,.01,-.0125,0.0*
1,1,.01,0.0,.0125*
20,1,.01,0.0,.0125,0.0,-.0125,0.0*
1,1,.01,0.0,-.0125*
%
%ADD12MACRO12*%
%AMMACRO10*
1,1,.01,.02,0.0*
20,1,.01,.02,0.0,.01,.017321,0.0*
1,1,.01,.01,.017321*
20,1,.01,.01,.017321,-.01,.017321,0.0*
1,1,.01,-.01,.017321*
20,1,.01,-.01,.017321,-.02,0.0,0.0*
1,1,.01,-.02,0.0*
20,1,.01,-.02,0.0,-.01,-.017321,0.0*
1,1,.01,-.01,-.017321*
20,1,.01,-.01,-.017321,.01,-.017321,0.0*
1,1,.01,.01,-.017321*
20,1,.01,.01,-.017321,.02,0.0,0.0*
1,1,.01,.02,0.0*
%
%ADD10MACRO10*%
%AMMACRO11*
1,1,.01,.0165,0.0*
20,1,.01,.0165,0.0,.00825,.014289,0.0*
1,1,.01,.00825,.014289*
20,1,.01,.00825,.014289,-.00825,.014289,0.0*
1,1,.01,-.00825,.014289*
20,1,.01,-.00825,.014289,-.0165,0.0,0.0*
1,1,.01,-.0165,0.0*
20,1,.01,-.0165,0.0,-.00825,-.014289,0.0*
1,1,.01,-.00825,-.014289*
20,1,.01,-.00825,-.014289,.00825,-.014289,0.0*
1,1,.01,.00825,-.014289*
20,1,.01,.00825,-.014289,.0165,0.0,0.0*
1,1,.01,.0165,0.0*
%
%ADD11MACRO11*%
%ADD13C,.01*%
G75*
%LPD*%
G75*
G54D10*
X371250Y245350D03*
Y255550D03*
Y265750D03*
Y275950D03*
Y286150D03*
Y296350D03*
Y306550D03*
X380800Y445000D03*
Y455200D03*
Y465400D03*
Y475600D03*
Y485800D03*
Y496000D03*
Y506200D03*
Y516400D03*
Y526600D03*
Y536800D03*
Y547000D03*
Y557200D03*
Y567400D03*
Y577600D03*
Y587800D03*
Y598000D03*
X385050Y350050D03*
X384350Y371250D03*
X405050Y350050D03*
X404350Y371250D03*
X406050Y405350D03*
Y415550D03*
Y425750D03*
Y435950D03*
Y446150D03*
Y456350D03*
X421550Y248950D03*
X433450Y566250D03*
Y576250D03*
Y586250D03*
X434600Y276000D03*
Y286200D03*
Y296400D03*
Y306600D03*
X439100Y415100D03*
Y425300D03*
Y435500D03*
Y445700D03*
X441550Y248950D03*
X457950Y597550D03*
X478550Y350550D03*
Y370050D03*
X496250Y270050D03*
Y310050D03*
X497300Y346900D03*
Y356900D03*
Y366900D03*
Y376900D03*
Y386900D03*
Y396900D03*
Y406900D03*
Y416900D03*
Y426900D03*
Y436900D03*
Y446900D03*
Y456900D03*
Y466900D03*
Y476900D03*
Y486900D03*
Y496900D03*
Y506900D03*
Y516900D03*
Y526900D03*
Y536900D03*
X497950Y597550D03*
X525350Y578850D03*
Y598850D03*
X557250Y267650D03*
Y287650D03*
X557300Y346900D03*
Y356900D03*
Y366900D03*
Y376900D03*
Y386900D03*
Y396900D03*
Y406900D03*
Y416900D03*
Y426900D03*
Y436900D03*
Y446900D03*
Y456900D03*
Y466900D03*
Y476900D03*
Y486900D03*
Y496900D03*
Y506900D03*
Y516900D03*
Y526900D03*
Y536900D03*
X557850Y579650D03*
Y597650D03*
X578950Y446750D03*
X577950Y469150D03*
Y509150D03*
Y529550D03*
Y549550D03*
X585450Y309050D03*
Y327050D03*
X583850Y579650D03*
Y597650D03*
X598350Y530050D03*
Y550050D03*
X611450Y309050D03*
Y327050D03*
X618950Y446750D03*
Y530150D03*
Y550150D03*
X640750Y540150D03*
Y550150D03*
Y560150D03*
X645650Y379650D03*
Y405650D03*
X646450Y425150D03*
Y451150D03*
X646850Y468650D03*
Y494650D03*
X663650Y379650D03*
Y405650D03*
X664450Y425150D03*
Y451150D03*
X664850Y468650D03*
Y494650D03*
X663750Y529150D03*
Y549150D03*
X665350Y246950D03*
Y286950D03*
X684550Y385650D03*
Y425650D03*
X685050Y345850D03*
Y365850D03*
X685450Y528750D03*
Y548750D03*
X704650Y387650D03*
Y427650D03*
X706450Y528650D03*
Y548650D03*
X726150Y463850D03*
Y493850D03*
X725850Y528150D03*
Y548150D03*
X725650Y570050D03*
Y590050D03*
X798150Y488100D03*
G54D11*
X632400Y588200D03*
Y608200D03*
X640400Y588200D03*
Y608200D03*
X648400Y588200D03*
Y608200D03*
X798150Y513100D03*
G54D12*
X702700Y450000D03*
X697600D03*
X707800D03*
X798150Y538100D03*
G54D13*
G01X353250Y228250D02*
Y621750D01*
X746750D01*
Y228250D01*
X353250D01*
G01X753200Y475600D02*
Y625600D01*
X1249200D01*
Y475600D01*
X753200D01*
G01Y500600D02*
X1249200D01*
G01X753200Y525600D02*
X1249200D01*
G01X753200Y550600D02*
X1249200D01*
G01X753200Y575600D02*
X1249200D01*
G01X753200Y600600D02*
X1249200D01*
G01X764205Y556850D02*
Y569350D01*
X770095D01*
G01X767925Y563308D02*
X764205D01*
G01X777690Y569350D02*
X781410D01*
G01X779550D02*
Y556850D01*
G01X777690D02*
X781410D01*
G01X792880Y563100D02*
X795980D01*
Y559350D01*
X795050Y558100D01*
X793965Y557267D01*
X792415Y556850D01*
X790865Y557267D01*
X789780Y558100D01*
X788850Y559350D01*
X788230Y560808D01*
X787920Y562475D01*
Y563933D01*
X788230Y565183D01*
X788850Y566642D01*
X789780Y567892D01*
X790710Y568725D01*
X791950Y569350D01*
X793035D01*
X794275Y568933D01*
X795205Y568100D01*
G01X800940Y569350D02*
Y560392D01*
X801560Y558516D01*
X802800Y557267D01*
X804350Y556850D01*
X805900Y557267D01*
X807140Y558516D01*
X807760Y560392D01*
Y569350D01*
G01X813650Y556850D02*
Y569350D01*
X817525D01*
X818765Y568725D01*
X819540Y567892D01*
X819850Y566225D01*
X819540Y564558D01*
X818610Y563517D01*
X817525Y562892D01*
X813650D01*
G01X817525D02*
X819850Y556850D01*
G01X832250D02*
X826050D01*
Y569350D01*
X832250D01*
G01X829770Y563308D02*
X826050D01*
G01X843100Y575600D02*
Y475600D01*
G01X842790Y606850D02*
Y619350D01*
X845890D01*
X847130Y618725D01*
X848060Y617892D01*
X848835Y616642D01*
X849455Y615183D01*
X849610Y613100D01*
X849455Y611017D01*
X848835Y609558D01*
X848060Y608308D01*
X847130Y607475D01*
X845890Y606850D01*
X842790D01*
G01X855500D02*
Y619350D01*
X859375D01*
X860615Y618725D01*
X861390Y617892D01*
X861700Y616225D01*
X861390Y614558D01*
X860460Y613517D01*
X859375Y612892D01*
X855500D01*
G01X859375D02*
X861700Y606850D01*
G01X869140Y619350D02*
X872860D01*
G01X871000D02*
Y606850D01*
G01X869140D02*
X872860D01*
G01X880300Y619350D02*
Y606850D01*
X886500D01*
G01X892700Y619350D02*
Y606850D01*
X898900D01*
G01X924010Y618308D02*
X923080Y618933D01*
X921995Y619350D01*
X920755D01*
X919360Y618725D01*
X918275Y617683D01*
X917500Y616433D01*
X916880Y614350D01*
X916725Y612475D01*
X917035Y610600D01*
X917500Y609350D01*
X918430Y608100D01*
X919515Y607267D01*
X920600Y606850D01*
X921685D01*
X922770Y607267D01*
X923700Y607891D01*
X924475Y608725D01*
G01X929745Y606850D02*
Y619350D01*
G01X936255D02*
Y606850D01*
G01Y613100D02*
X929745D01*
G01X941525Y606850D02*
X945400Y619350D01*
X949275Y606850D01*
G01X947880Y611225D02*
X942920D01*
G01X954700Y606850D02*
Y619350D01*
X958575D01*
X959815Y618725D01*
X960590Y617892D01*
X960900Y616225D01*
X960590Y614558D01*
X959660Y613517D01*
X958575Y612892D01*
X954700D01*
G01X958575D02*
X960900Y606850D01*
G01X970200Y619350D02*
Y606850D01*
G01X966635Y619350D02*
X973765D01*
G01X982600Y606433D02*
X982290Y606642D01*
Y607058D01*
X982600Y607267D01*
X982910Y607058D01*
Y606642D01*
X982600Y606433D01*
G01Y612058D02*
X982290Y612267D01*
Y612683D01*
X982600Y612892D01*
X982910Y612683D01*
Y612267D01*
X982600Y612058D01*
G01X1007400Y619350D02*
Y606850D01*
G01X1003835Y619350D02*
X1010965D01*
G01X1019800Y606850D02*
X1018560Y607058D01*
X1017475Y607891D01*
X1016545Y609142D01*
X1015925Y610600D01*
X1015615Y612267D01*
Y613933D01*
X1015925Y615600D01*
X1016545Y617058D01*
X1017475Y618308D01*
X1018560Y619142D01*
X1019800Y619350D01*
X1021040Y619142D01*
X1022125Y618308D01*
X1023055Y617058D01*
X1023675Y615600D01*
X1023985Y613933D01*
Y612267D01*
X1023675Y610600D01*
X1023055Y609142D01*
X1022125Y607891D01*
X1021040Y607058D01*
X1019800Y606850D01*
G01X1029100D02*
Y619350D01*
X1032820D01*
X1034060Y618725D01*
X1034990Y617267D01*
X1035300Y615600D01*
X1034990Y613933D01*
X1034215Y612683D01*
X1032820Y612058D01*
X1029100D01*
G01X1057000Y619350D02*
Y606850D01*
G01X1054830Y615183D02*
X1059170D01*
G01X1069400Y606850D02*
X1068470Y607058D01*
X1067540Y607891D01*
X1066920Y609350D01*
X1066610Y611017D01*
X1066920Y612683D01*
X1067540Y614142D01*
X1068470Y614975D01*
X1069400Y615183D01*
X1070330Y614975D01*
X1071260Y614142D01*
X1071880Y612683D01*
X1072035Y611017D01*
X1071880Y609350D01*
X1071260Y607891D01*
X1070330Y607058D01*
X1069400Y606850D01*
G01X1095440Y613517D02*
X1096060Y614142D01*
X1096525Y615183D01*
X1096835Y616642D01*
X1096525Y617892D01*
X1095905Y618725D01*
X1094820Y619350D01*
X1090635D01*
Y606850D01*
X1095750D01*
X1096835Y607683D01*
X1097455Y608933D01*
X1097765Y610392D01*
X1097455Y611850D01*
X1096525Y613100D01*
X1095440Y613517D01*
X1090635D01*
G01X1106600Y606850D02*
X1105360Y607058D01*
X1104275Y607891D01*
X1103345Y609142D01*
X1102725Y610600D01*
X1102415Y612267D01*
Y613933D01*
X1102725Y615600D01*
X1103345Y617058D01*
X1104275Y618308D01*
X1105360Y619142D01*
X1106600Y619350D01*
X1107840Y619142D01*
X1108925Y618308D01*
X1109855Y617058D01*
X1110475Y615600D01*
X1110785Y613933D01*
Y612267D01*
X1110475Y610600D01*
X1109855Y609142D01*
X1108925Y607891D01*
X1107840Y607058D01*
X1106600Y606850D01*
G01X1119000Y619350D02*
Y606850D01*
G01X1115435Y619350D02*
X1122565D01*
G01X1131400D02*
Y606850D01*
G01X1127835Y619350D02*
X1134965D01*
G01X1143800Y606850D02*
X1142560Y607058D01*
X1141475Y607891D01*
X1140545Y609142D01*
X1139925Y610600D01*
X1139615Y612267D01*
Y613933D01*
X1139925Y615600D01*
X1140545Y617058D01*
X1141475Y618308D01*
X1142560Y619142D01*
X1143800Y619350D01*
X1145040Y619142D01*
X1146125Y618308D01*
X1147055Y617058D01*
X1147675Y615600D01*
X1147985Y613933D01*
Y612267D01*
X1147675Y610600D01*
X1147055Y609142D01*
X1146125Y607891D01*
X1145040Y607058D01*
X1143800Y606850D01*
G01X1152170D02*
Y619350D01*
X1156200Y608933D01*
X1160230Y619350D01*
Y606850D01*
G01X866505Y556850D02*
Y569350D01*
X872395D01*
G01X870225Y563308D02*
X866505D01*
G01X879990Y569350D02*
X883710D01*
G01X881850D02*
Y556850D01*
G01X879990D02*
X883710D01*
G01X890685D02*
Y569350D01*
X897815Y556850D01*
Y569350D01*
G01X904790D02*
X908510D01*
G01X906650D02*
Y556850D01*
G01X904790D02*
X908510D01*
G01X915795Y558516D02*
X917035Y557475D01*
X918430Y556850D01*
X919670D01*
X920910Y557475D01*
X921840Y558516D01*
X922305Y559975D01*
X921995Y561433D01*
X921220Y562683D01*
X919825Y563517D01*
X917965Y563933D01*
X916880Y564767D01*
X916415Y566225D01*
X916725Y567683D01*
X917500Y568725D01*
X918585Y569350D01*
X919670D01*
X920755Y568933D01*
X921685Y567892D01*
G01X928195Y556850D02*
Y569350D01*
G01X934705D02*
Y556850D01*
G01Y563100D02*
X928195D01*
G01X946950Y556850D02*
X940750D01*
Y569350D01*
X946950D01*
G01X944470Y563308D02*
X940750D01*
G01X952840Y556850D02*
Y569350D01*
X955940D01*
X957180Y568725D01*
X958110Y567892D01*
X958885Y566642D01*
X959505Y565183D01*
X959660Y563100D01*
X959505Y561017D01*
X958885Y559558D01*
X958110Y558308D01*
X957180Y557475D01*
X955940Y556850D01*
X952840D01*
G01X964000Y552683D02*
X973300D01*
G01X977795Y558516D02*
X979035Y557475D01*
X980430Y556850D01*
X981670D01*
X982910Y557475D01*
X983840Y558516D01*
X984305Y559975D01*
X983995Y561433D01*
X983220Y562683D01*
X981825Y563517D01*
X979965Y563933D01*
X978880Y564767D01*
X978415Y566225D01*
X978725Y567683D01*
X979500Y568725D01*
X980585Y569350D01*
X981670D01*
X982755Y568933D01*
X983685Y567892D01*
G01X991590Y569350D02*
X995310D01*
G01X993450D02*
Y556850D01*
G01X991590D02*
X995310D01*
G01X1002905Y569350D02*
X1008795D01*
X1002905Y556850D01*
X1008795D01*
G01X1021350D02*
X1015150D01*
Y569350D01*
X1021350D01*
G01X1018870Y563308D02*
X1015150D01*
G01X873325Y581850D02*
X877200Y594350D01*
X881075Y581850D01*
G01X879680Y586225D02*
X874720D01*
G01X886500Y594350D02*
Y581850D01*
X892700D01*
G01X898900Y594350D02*
Y581850D01*
X905100D01*
G01X923390Y594350D02*
Y585392D01*
X924010Y583516D01*
X925250Y582267D01*
X926800Y581850D01*
X928350Y582267D01*
X929590Y583516D01*
X930210Y585392D01*
Y594350D01*
G01X935635Y581850D02*
Y594350D01*
X942765Y581850D01*
Y594350D01*
G01X949740D02*
X953460D01*
G01X951600D02*
Y581850D01*
G01X949740D02*
X953460D01*
G01X964000Y594350D02*
Y581850D01*
G01X960435Y594350D02*
X967565D01*
G01X973145Y583516D02*
X974385Y582475D01*
X975780Y581850D01*
X977020D01*
X978260Y582475D01*
X979190Y583516D01*
X979655Y584975D01*
X979345Y586433D01*
X978570Y587683D01*
X977175Y588517D01*
X975315Y588933D01*
X974230Y589767D01*
X973765Y591225D01*
X974075Y592683D01*
X974850Y593725D01*
X975935Y594350D01*
X977020D01*
X978105Y593933D01*
X979035Y592892D01*
G01X997325Y581850D02*
X1001200Y594350D01*
X1005075Y581850D01*
G01X1003680Y586225D02*
X998720D01*
G01X1010500Y581850D02*
Y594350D01*
X1014375D01*
X1015615Y593725D01*
X1016390Y592892D01*
X1016700Y591225D01*
X1016390Y589558D01*
X1015460Y588517D01*
X1014375Y587892D01*
X1010500D01*
G01X1014375D02*
X1016700Y581850D01*
G01X1029100D02*
X1022900D01*
Y594350D01*
X1029100D01*
G01X1026620Y588308D02*
X1022900D01*
G01X1048940Y594350D02*
X1052660D01*
G01X1050800D02*
Y581850D01*
G01X1048940D02*
X1052660D01*
G01X1059635D02*
Y594350D01*
X1066765Y581850D01*
Y594350D01*
G01X1083970Y581850D02*
Y594350D01*
X1088000Y583933D01*
X1092030Y594350D01*
Y581850D01*
G01X1098540Y594350D02*
X1102260D01*
G01X1100400D02*
Y581850D01*
G01X1098540D02*
X1102260D01*
G01X1109700Y594350D02*
Y581850D01*
X1115900D01*
G01X1121945Y583516D02*
X1123185Y582475D01*
X1124580Y581850D01*
X1125820D01*
X1127060Y582475D01*
X1127990Y583516D01*
X1128455Y584975D01*
X1128145Y586433D01*
X1127370Y587683D01*
X1125975Y588517D01*
X1124115Y588933D01*
X1123030Y589767D01*
X1122565Y591225D01*
X1122875Y592683D01*
X1123650Y593725D01*
X1124735Y594350D01*
X1125820D01*
X1126905Y593933D01*
X1127835Y592892D01*
G01X927110Y481850D02*
Y494350D01*
X921375Y485392D01*
X929125D01*
G01X939510Y481850D02*
Y494350D01*
X933775Y485392D01*
X941525D01*
G01X950050Y481433D02*
X949740Y481642D01*
Y482058D01*
X950050Y482267D01*
X950360Y482058D01*
Y481642D01*
X950050Y481433D01*
G01X962450Y494350D02*
X961210Y493933D01*
X960280Y492892D01*
X959660Y491642D01*
X959195Y489975D01*
X959040Y488100D01*
X959195Y486225D01*
X959660Y484558D01*
X960280Y483308D01*
X961210Y482267D01*
X962450Y481850D01*
X963690Y482267D01*
X964620Y483308D01*
X965240Y484558D01*
X965705Y486225D01*
X965860Y488100D01*
X965705Y489975D01*
X965240Y491642D01*
X964620Y492892D01*
X963690Y493933D01*
X962450Y494350D01*
G01X921840Y509350D02*
X922770Y507891D01*
X924010Y507058D01*
X925405Y506850D01*
X926645Y507058D01*
X927885Y508100D01*
X928660Y509350D01*
X928815Y510600D01*
X928505Y512058D01*
X927420Y513100D01*
X926335Y513517D01*
X924940D01*
G01X926335D02*
X927265Y514142D01*
X928040Y515183D01*
X928350Y516433D01*
X928040Y517683D01*
X927265Y518725D01*
X925870Y519350D01*
X924475Y519142D01*
X923080Y518308D01*
G01X937650Y519350D02*
X936410Y518933D01*
X935480Y517892D01*
X934860Y516642D01*
X934395Y514975D01*
X934240Y513100D01*
X934395Y511225D01*
X934860Y509558D01*
X935480Y508308D01*
X936410Y507267D01*
X937650Y506850D01*
X938890Y507267D01*
X939820Y508308D01*
X940440Y509558D01*
X940905Y511225D01*
X941060Y513100D01*
X940905Y514975D01*
X940440Y516642D01*
X939820Y517892D01*
X938890Y518933D01*
X937650Y519350D01*
G01X950050Y506433D02*
X949740Y506642D01*
Y507058D01*
X950050Y507267D01*
X950360Y507058D01*
Y506642D01*
X950050Y506433D01*
G01X962450Y519350D02*
X961210Y518933D01*
X960280Y517892D01*
X959660Y516642D01*
X959195Y514975D01*
X959040Y513100D01*
X959195Y511225D01*
X959660Y509558D01*
X960280Y508308D01*
X961210Y507267D01*
X962450Y506850D01*
X963690Y507267D01*
X964620Y508308D01*
X965240Y509558D01*
X965705Y511225D01*
X965860Y513100D01*
X965705Y514975D01*
X965240Y516642D01*
X964620Y517892D01*
X963690Y518933D01*
X962450Y519350D01*
G01X922305Y542267D02*
X923235Y543516D01*
X924320Y544142D01*
X925560Y544350D01*
X927110Y543933D01*
X928195Y542892D01*
X928505Y541642D01*
X928350Y540391D01*
X927730Y539350D01*
X924630Y537267D01*
X923235Y535808D01*
X922305Y533725D01*
X921995Y531850D01*
X928505D01*
G01X934240Y533725D02*
X935170Y532683D01*
X936255Y532058D01*
X937650Y531850D01*
X939045Y532267D01*
X940130Y533100D01*
X940905Y534558D01*
X941060Y536225D01*
X940750Y537892D01*
X939975Y538933D01*
X938890Y539767D01*
X937805Y539975D01*
X936720Y539767D01*
X935325Y538933D01*
X935790Y544350D01*
X939975D01*
G01X950050Y531433D02*
X949740Y531642D01*
Y532058D01*
X950050Y532267D01*
X950360Y532058D01*
Y531642D01*
X950050Y531433D01*
G01X962450Y544350D02*
X961210Y543933D01*
X960280Y542892D01*
X959660Y541642D01*
X959195Y539975D01*
X959040Y538100D01*
X959195Y536225D01*
X959660Y534558D01*
X960280Y533308D01*
X961210Y532267D01*
X962450Y531850D01*
X963690Y532267D01*
X964620Y533308D01*
X965240Y534558D01*
X965705Y536225D01*
X965860Y538100D01*
X965705Y539975D01*
X965240Y541642D01*
X964620Y542892D01*
X963690Y543933D01*
X962450Y544350D01*
G01X1044600Y575600D02*
Y475600D01*
G01X1074050Y481850D02*
Y494350D01*
X1077770D01*
X1079010Y493725D01*
X1079940Y492267D01*
X1080250Y490600D01*
X1079940Y488933D01*
X1079165Y487683D01*
X1077770Y487058D01*
X1074050D01*
G01X1086450Y494350D02*
Y481850D01*
X1092650D01*
G01X1098075D02*
X1101950Y494350D01*
X1105825Y481850D01*
G01X1104430Y486225D02*
X1099470D01*
G01X1114350Y494350D02*
Y481850D01*
G01X1110785Y494350D02*
X1117915D01*
G01X1129850Y481850D02*
X1123650D01*
Y494350D01*
X1129850D01*
G01X1127370Y488308D02*
X1123650D01*
G01X1135740Y481850D02*
Y494350D01*
X1138840D01*
X1140080Y493725D01*
X1141010Y492892D01*
X1141785Y491642D01*
X1142405Y490183D01*
X1142560Y488100D01*
X1142405Y486017D01*
X1141785Y484558D01*
X1141010Y483308D01*
X1140080Y482475D01*
X1138840Y481850D01*
X1135740D01*
G01X1074050Y506850D02*
Y519350D01*
X1077770D01*
X1079010Y518725D01*
X1079940Y517267D01*
X1080250Y515600D01*
X1079940Y513933D01*
X1079165Y512683D01*
X1077770Y512058D01*
X1074050D01*
G01X1086450Y519350D02*
Y506850D01*
X1092650D01*
G01X1098075D02*
X1101950Y519350D01*
X1105825Y506850D01*
G01X1104430Y511225D02*
X1099470D01*
G01X1114350Y519350D02*
Y506850D01*
G01X1110785Y519350D02*
X1117915D01*
G01X1129850Y506850D02*
X1123650D01*
Y519350D01*
X1129850D01*
G01X1127370Y513308D02*
X1123650D01*
G01X1135740Y506850D02*
Y519350D01*
X1138840D01*
X1140080Y518725D01*
X1141010Y517892D01*
X1141785Y516642D01*
X1142405Y515183D01*
X1142560Y513100D01*
X1142405Y511017D01*
X1141785Y509558D01*
X1141010Y508308D01*
X1140080Y507475D01*
X1138840Y506850D01*
X1135740D01*
G01X1074050Y531850D02*
Y544350D01*
X1077770D01*
X1079010Y543725D01*
X1079940Y542267D01*
X1080250Y540600D01*
X1079940Y538933D01*
X1079165Y537683D01*
X1077770Y537058D01*
X1074050D01*
G01X1086450Y544350D02*
Y531850D01*
X1092650D01*
G01X1098075D02*
X1101950Y544350D01*
X1105825Y531850D01*
G01X1104430Y536225D02*
X1099470D01*
G01X1114350Y544350D02*
Y531850D01*
G01X1110785Y544350D02*
X1117915D01*
G01X1129850Y531850D02*
X1123650D01*
Y544350D01*
X1129850D01*
G01X1127370Y538308D02*
X1123650D01*
G01X1135740Y531850D02*
Y544350D01*
X1138840D01*
X1140080Y543725D01*
X1141010Y542892D01*
X1141785Y541642D01*
X1142405Y540183D01*
X1142560Y538100D01*
X1142405Y536017D01*
X1141785Y534558D01*
X1141010Y533308D01*
X1140080Y532475D01*
X1138840Y531850D01*
X1135740D01*
G01X1074050Y556850D02*
Y569350D01*
X1077770D01*
X1079010Y568725D01*
X1079940Y567267D01*
X1080250Y565600D01*
X1079940Y563933D01*
X1079165Y562683D01*
X1077770Y562058D01*
X1074050D01*
G01X1086450Y569350D02*
Y556850D01*
X1092650D01*
G01X1098075D02*
X1101950Y569350D01*
X1105825Y556850D01*
G01X1104430Y561225D02*
X1099470D01*
G01X1114350Y569350D02*
Y556850D01*
G01X1110785Y569350D02*
X1117915D01*
G01X1129850Y556850D02*
X1123650D01*
Y569350D01*
X1129850D01*
G01X1127370Y563308D02*
X1123650D01*
G01X1135740Y556850D02*
Y569350D01*
X1138840D01*
X1140080Y568725D01*
X1141010Y567892D01*
X1141785Y566642D01*
X1142405Y565183D01*
X1142560Y563100D01*
X1142405Y561017D01*
X1141785Y559558D01*
X1141010Y558308D01*
X1140080Y557475D01*
X1138840Y556850D01*
X1135740D01*
G01X1171700Y575600D02*
Y475600D01*
G01X1198050Y481850D02*
Y494350D01*
X1196190Y491850D01*
G01Y481850D02*
X1199910D01*
G01X1212310D02*
Y494350D01*
X1206575Y485392D01*
X1214325D01*
G01X1220215Y483308D02*
X1221300Y482267D01*
X1222540Y481850D01*
X1223780Y482267D01*
X1224865Y483516D01*
X1225640Y485392D01*
X1225950Y487267D01*
Y489558D01*
X1225640Y491433D01*
X1224865Y493100D01*
X1223935Y493933D01*
X1222850Y494350D01*
X1221610Y493933D01*
X1220680Y493100D01*
X1220060Y491850D01*
X1219750Y490183D01*
X1220060Y488725D01*
X1220835Y487267D01*
X1221765Y486433D01*
X1222850Y486225D01*
X1224090Y486641D01*
X1225020Y487683D01*
X1225950Y489558D01*
G01X1198050Y556850D02*
X1196810Y557058D01*
X1195725Y557891D01*
X1194795Y559142D01*
X1194175Y560600D01*
X1193865Y562267D01*
Y563933D01*
X1194175Y565600D01*
X1194795Y567058D01*
X1195725Y568308D01*
X1196810Y569142D01*
X1198050Y569350D01*
X1199290Y569142D01*
X1200375Y568308D01*
X1201305Y567058D01*
X1201925Y565600D01*
X1202235Y563933D01*
Y562267D01*
X1201925Y560600D01*
X1201305Y559142D01*
X1200375Y557891D01*
X1199290Y557058D01*
X1198050Y556850D01*
G01X1199290Y560183D02*
X1201150Y556850D01*
G01X1210450Y569350D02*
Y556850D01*
G01X1206885Y569350D02*
X1214015D01*
G01X1222850Y556850D02*
Y562475D01*
X1219750Y569350D01*
G01X1225950D02*
X1222850Y562475D01*
G01X1207505Y512058D02*
X1208590Y513517D01*
X1209520Y514350D01*
X1210760Y514767D01*
X1211845Y514350D01*
X1212620Y513517D01*
X1213240Y512267D01*
X1213395Y510808D01*
X1213240Y509558D01*
X1212620Y508308D01*
X1211690Y507267D01*
X1210605Y506850D01*
X1209365Y507267D01*
X1208280Y508516D01*
X1207660Y510392D01*
X1207505Y512475D01*
X1207815Y515183D01*
X1208280Y516642D01*
X1209055Y518100D01*
X1210140Y519142D01*
X1211225Y519350D01*
X1212310Y518933D01*
X1213085Y517892D01*
G01X1207040Y534350D02*
X1207970Y532891D01*
X1209210Y532058D01*
X1210605Y531850D01*
X1211845Y532058D01*
X1213085Y533100D01*
X1213860Y534350D01*
X1214015Y535600D01*
X1213705Y537058D01*
X1212620Y538100D01*
X1211535Y538517D01*
X1210140D01*
G01X1211535D02*
X1212465Y539142D01*
X1213240Y540183D01*
X1213550Y541433D01*
X1213240Y542683D01*
X1212465Y543725D01*
X1211070Y544350D01*
X1209675Y544142D01*
X1208280Y543308D01*
M02*
